<svg xmlns="http://www.w3.org/2000/svg" viewBox="0 0 64 64">
  <defs>
    <linearGradient id="g" x1="0" y1="0" x2="1" y2="1">
      <stop offset="0%" stop-color="#2563eb"/>
      <stop offset="100%" stop-color="#16a34a"/>
    </linearGradient>
    <filter id="s" x="-20%" y="-20%" width="140%" height="140%">
      <feDropShadow dx="0" dy="2" stdDeviation="1.5" flood-opacity="0.18"/>
    </filter>
  </defs>
  <rect x="4" y="4" width="56" height="56" rx="14" fill="url(#g)"/>
  <g filter="url(#s)">
    <path d="M46 26c0 8.284-6.716 15-15 15S16 34.284 16 26c0-2.2 1.8-4 4-4 3 0 5 2 9 2s6-2 9-2c2.2 0 4 1.8 4 4z" fill="#ecfdf5"/>
    <path d="M25 31c2.2 0 4-1.8 4-4-3.2-.2-5.8-1.2-8-2-.6 3 1.6 6 4 6z" fill="#86efac"/>
    <path d="M39 31c-2.2 0-4-1.8-4-4 3.2-.2 5.8-1.2 8-2 .6 3-1.6 6-4 6z" fill="#a7f3d0"/>
  </g>
  <text x="32" y="46" text-anchor="middle" font-family="Inter, system-ui, -apple-system, Segoe UI, Roboto" font-size="12" font-weight="800" fill="#0f172a">C</text>
</svg>
